<svg xmlns="http://www.w3.org/2000/svg" xmlns:xlink="http://www.w3.org/1999/xlink" width="1134" zoomAndPan="magnify" viewBox="0 0 850.5 283.499996" height="378" preserveAspectRatio="xMidYMid meet" version="1.0"><defs><g/><clipPath id="17d0ec47a1"><path d="M 1 55 L 849.5 55 L 849.5 230 L 1 230 Z M 1 55 " clip-rule="nonzero"/></clipPath><clipPath id="1abf72694f"><path d="M 815.078125 52.207031 L 848.492188 52.207031 L 848.492188 85.613281 L 815.078125 85.613281 Z M 815.078125 52.207031 " clip-rule="nonzero"/></clipPath><clipPath id="38d91bb5d8"><path d="M 0.457031 0.101562 L 435 0.101562 L 435 167 L 0.457031 167 Z M 0.457031 0.101562 " clip-rule="nonzero"/></clipPath><clipPath id="b2ec886b2b"><rect x="0" width="435" y="0" height="167"/></clipPath><clipPath id="3111e034a5"><rect x="0" width="376" y="0" height="139"/></clipPath><clipPath id="1914155a1a"><path d="M 183 147 L 639 147 L 639 174.515625 L 183 174.515625 Z M 183 147 " clip-rule="nonzero"/></clipPath><clipPath id="9aba901ce7"><rect x="0" width="456" y="0" height="28"/></clipPath><clipPath id="f4817a7920"><rect x="0" width="849" y="0" height="175"/></clipPath></defs><g clip-path="url(#17d0ec47a1)"><g transform="matrix(1, 0, 0, 1, 1, 55)"><g clip-path="url(#f4817a7920)"><g clip-path="url(#1abf72694f)"><path fill="#ffffff" d="M 820.796875 63.089844 L 830.046875 63.089844 L 830.046875 65.058594 L 826.601562 65.058594 L 826.601562 74.730469 L 824.25 74.730469 L 824.25 65.058594 L 820.796875 65.058594 Z M 839.25 63.089844 L 837.164062 71.027344 L 835.050781 63.089844 L 831.53125 63.089844 L 831.53125 74.730469 L 833.714844 74.730469 L 833.714844 65.566406 L 836.019531 74.730469 L 838.28125 74.730469 L 840.59375 65.566406 L 840.59375 74.730469 L 842.777344 74.730469 L 842.777344 63.089844 Z M 848.492188 68.910156 C 848.492188 78.117188 841 85.613281 831.785156 85.613281 C 822.574219 85.613281 815.078125 78.117188 815.078125 68.910156 C 815.078125 59.699219 822.574219 52.207031 831.785156 52.207031 C 841 52.207031 848.492188 59.699219 848.492188 68.910156 Z M 846.71875 68.910156 C 846.71875 60.675781 840.019531 53.980469 831.785156 53.980469 C 823.550781 53.980469 816.851562 60.675781 816.851562 68.910156 C 816.851562 77.140625 823.550781 83.839844 831.785156 83.839844 C 840.019531 83.839844 846.71875 77.140625 846.71875 68.910156 " fill-opacity="1" fill-rule="nonzero"/></g><g clip-path="url(#38d91bb5d8)"><g transform="matrix(1, 0, 0, 1, 0, -0.000000000000014211)"><g clip-path="url(#b2ec886b2b)"><g fill="#ffffff" fill-opacity="1"><g transform="translate(2.47361, 125.191922)"><g><path d="M 39.46875 -59.484375 C 31.261719 -59.484375 25.300781 -56.449219 21.363281 -50.488281 L 20.804688 -58.023438 L 6.746094 -58.023438 L 6.746094 22.9375 L 22.601562 22.9375 L 22.601562 -5.398438 C 26.425781 -0.5625 31.824219 1.910156 38.230469 1.910156 C 52.851562 1.910156 63.195312 -10.570312 63.195312 -29.238281 C 63.195312 -48.238281 52.625 -59.484375 39.46875 -59.484375 Z M 34.859375 -12.03125 C 27.210938 -12.03125 21.816406 -18.777344 21.816406 -29.238281 C 21.816406 -39.695312 27.210938 -46.328125 34.859375 -46.328125 C 42.503906 -46.328125 47.902344 -39.804688 47.902344 -29.238281 C 47.902344 -18.554688 42.503906 -12.03125 34.859375 -12.03125 Z M 34.859375 -12.03125 "/></g></g></g><g fill="#ffffff" fill-opacity="1"><g transform="translate(63.063775, 125.191922)"><g><path d="M 35.757812 -59.597656 C 29.347656 -59.597656 24.625 -56.222656 22.039062 -50.039062 L 22.265625 -58.023438 L 6.746094 -58.023438 L 6.746094 0 L 22.601562 0 L 22.601562 -28.222656 C 22.601562 -39.46875 27.324219 -44.980469 36.996094 -44.980469 C 38.121094 -44.980469 39.132812 -44.867188 40.257812 -44.753906 L 40.257812 -59.148438 C 38.683594 -59.484375 37.109375 -59.597656 35.757812 -59.597656 Z M 35.757812 -59.597656 "/></g></g></g><g fill="#ffffff" fill-opacity="1"><g transform="translate(99.371796, 125.191922)"><g><path d="M 61.957031 -26.988281 C 61.957031 -47.339844 49.363281 -59.484375 32.160156 -59.484375 C 14.394531 -59.484375 3.597656 -46.214844 3.597656 -29.238281 C 3.597656 -11.46875 14.617188 1.910156 33.847656 1.910156 C 46.890625 1.910156 56.5625 -4.160156 60.496094 -16.753906 L 44.753906 -17.878906 C 42.84375 -12.820312 39.019531 -10.34375 33.507812 -10.34375 C 25.636719 -10.34375 20.578125 -15.519531 19.902344 -24.289062 L 61.957031 -24.289062 Z M 32.722656 -47.902344 C 39.917969 -47.902344 44.640625 -43.179688 45.542969 -35.082031 L 19.789062 -35.082031 C 20.578125 -43.066406 25.527344 -47.902344 32.722656 -47.902344 Z M 32.722656 -47.902344 "/></g></g></g><g fill="#ffffff" fill-opacity="1"><g transform="translate(158.725361, 125.191922)"><g><path d="M 31.484375 1.910156 C 46.105469 1.910156 56 -6.183594 58.359375 -20.015625 L 42.84375 -20.015625 C 41.042969 -13.71875 37.332031 -10.457031 31.710938 -10.457031 C 23.613281 -10.457031 18.890625 -16.980469 18.890625 -28.785156 C 18.890625 -40.59375 23.613281 -47.117188 31.710938 -47.117188 C 37.445312 -47.117188 41.15625 -44.078125 42.84375 -37.78125 L 58.359375 -37.78125 C 56 -51.5 46.328125 -59.484375 31.484375 -59.484375 C 14.28125 -59.484375 3.597656 -47.453125 3.597656 -28.785156 C 3.597656 -10.121094 14.28125 1.910156 31.484375 1.910156 Z M 31.484375 1.910156 "/></g></g></g><g fill="#ffffff" fill-opacity="1"><g transform="translate(214.031915, 125.191922)"><g><path d="M 22.714844 -65.667969 L 22.714844 -80.0625 L 6.859375 -80.0625 L 6.859375 -65.667969 Z M 22.601562 0 L 22.601562 -58.023438 L 6.746094 -58.023438 L 6.746094 0 Z M 22.601562 0 "/></g></g></g><g fill="#ffffff" fill-opacity="1"><g transform="translate(237.187123, 125.191922)"><g><path d="M 31.035156 2.136719 C 46.664062 2.136719 56.785156 -4.949219 56.785156 -17.203125 C 56.785156 -26.199219 51.386719 -31.484375 39.804688 -33.847656 L 27.324219 -36.433594 C 23.164062 -37.332031 20.804688 -39.246094 20.804688 -42.28125 C 20.804688 -45.992188 24.175781 -48.464844 29.460938 -48.464844 C 35.421875 -48.464844 39.695312 -45.429688 40.480469 -40.367188 L 54.761719 -40.929688 C 53.300781 -52.289062 43.742188 -59.484375 29.6875 -59.484375 C 15.40625 -59.484375 6.070312 -52.0625 6.070312 -40.367188 C 6.070312 -31.484375 11.582031 -25.636719 22.9375 -23.390625 L 34.410156 -21.140625 C 39.695312 -20.128906 42.054688 -18.441406 42.054688 -15.292969 C 42.054688 -10.90625 37.558594 -8.882812 31.597656 -8.882812 C 24.0625 -8.882812 20.128906 -12.144531 19.230469 -17.878906 L 4.722656 -17.316406 C 6.183594 -4.949219 15.179688 2.136719 31.035156 2.136719 Z M 31.035156 2.136719 "/></g></g></g><g fill="#ffffff" fill-opacity="1"><g transform="translate(291.706753, 125.191922)"><g><path d="M 22.714844 -65.667969 L 22.714844 -80.0625 L 6.859375 -80.0625 L 6.859375 -65.667969 Z M 22.601562 0 L 22.601562 -58.023438 L 6.746094 -58.023438 L 6.746094 0 Z M 22.601562 0 "/></g></g></g><g fill="#ffffff" fill-opacity="1"><g transform="translate(314.861961, 125.191922)"><g><path d="M 33.285156 1.910156 C 50.714844 1.910156 62.96875 -11.246094 62.96875 -28.785156 C 62.96875 -46.328125 50.714844 -59.484375 33.285156 -59.484375 C 15.855469 -59.484375 3.597656 -46.328125 3.597656 -28.785156 C 3.597656 -11.246094 15.855469 1.910156 33.285156 1.910156 Z M 33.285156 -10.457031 C 24.402344 -10.457031 18.890625 -17.652344 18.890625 -28.785156 C 18.890625 -39.917969 24.402344 -47.117188 33.285156 -47.117188 C 42.167969 -47.117188 47.679688 -39.917969 47.679688 -28.785156 C 47.679688 -17.652344 42.167969 -10.457031 33.285156 -10.457031 Z M 33.285156 -10.457031 "/></g></g></g><g fill="#ffffff" fill-opacity="1"><g transform="translate(375.227268, 125.191922)"><g><path d="M 39.246094 -59.484375 C 31.824219 -59.484375 26.3125 -56.449219 22.488281 -50.152344 L 22.265625 -58.023438 L 6.746094 -58.023438 L 6.746094 0 L 22.601562 0 L 22.601562 -31.035156 C 22.601562 -39.695312 27.210938 -45.203125 33.960938 -45.203125 C 39.582031 -45.203125 42.394531 -41.378906 42.394531 -35.308594 L 42.394531 0 L 58.246094 0 L 58.246094 -38.90625 C 58.246094 -51.5 51.277344 -59.484375 39.246094 -59.484375 Z M 39.246094 -59.484375 "/></g></g></g></g></g></g><g transform="matrix(1, 0, 0, 1, 436, 12)"><g clip-path="url(#3111e034a5)"><g fill="#ffffff" fill-opacity="1"><g transform="translate(0.0433715, 108.0911)"><g><path d="M 64.09375 -83.4375 L 64.09375 0 L 58.59375 0 L 58.59375 -13.828125 C 56.269531 -9.253906 53.003906 -5.726562 48.796875 -3.25 C 44.597656 -0.78125 39.835938 0.453125 34.515625 0.453125 C 29.046875 0.453125 24.097656 -0.820312 19.671875 -3.375 C 15.253906 -5.925781 11.789062 -9.445312 9.28125 -13.9375 C 6.769531 -18.4375 5.515625 -23.570312 5.515625 -29.34375 C 5.515625 -35.125 6.769531 -40.28125 9.28125 -44.8125 C 11.789062 -49.34375 15.253906 -52.863281 19.671875 -55.375 C 24.097656 -57.894531 29.046875 -59.15625 34.515625 -59.15625 C 39.765625 -59.15625 44.46875 -57.914062 48.625 -55.4375 C 52.789062 -52.96875 56.070312 -49.519531 58.46875 -45.09375 L 58.46875 -83.4375 Z M 34.859375 -4.609375 C 39.359375 -4.609375 43.390625 -5.65625 46.953125 -7.75 C 50.515625 -9.851562 53.320312 -12.78125 55.375 -16.53125 C 57.4375 -20.28125 58.46875 -24.550781 58.46875 -29.34375 C 58.46875 -34.144531 57.4375 -38.421875 55.375 -42.171875 C 53.320312 -45.921875 50.515625 -48.84375 46.953125 -50.9375 C 43.390625 -53.039062 39.359375 -54.09375 34.859375 -54.09375 C 30.359375 -54.09375 26.328125 -53.039062 22.765625 -50.9375 C 19.210938 -48.84375 16.40625 -45.921875 14.34375 -42.171875 C 12.28125 -38.421875 11.25 -34.144531 11.25 -29.34375 C 11.25 -24.550781 12.28125 -20.28125 14.34375 -16.53125 C 16.40625 -12.78125 19.210938 -9.851562 22.765625 -7.75 C 26.328125 -5.65625 30.359375 -4.609375 34.859375 -4.609375 Z M 34.859375 -4.609375 "/></g></g></g><g fill="#ffffff" fill-opacity="1"><g transform="translate(66.702708, 108.0911)"><g><path d="M 61.515625 -28 L 11.015625 -28 C 11.171875 -23.425781 12.332031 -19.359375 14.5 -15.796875 C 16.675781 -12.234375 19.617188 -9.476562 23.328125 -7.53125 C 27.046875 -5.582031 31.226562 -4.609375 35.875 -4.609375 C 39.695312 -4.609375 43.238281 -5.300781 46.5 -6.6875 C 49.757812 -8.070312 52.476562 -10.113281 54.65625 -12.8125 L 57.90625 -9.109375 C 55.363281 -6.035156 52.160156 -3.671875 48.296875 -2.015625 C 44.429688 -0.367188 40.253906 0.453125 35.765625 0.453125 C 29.910156 0.453125 24.695312 -0.820312 20.125 -3.375 C 15.550781 -5.925781 11.972656 -9.445312 9.390625 -13.9375 C 6.804688 -18.4375 5.515625 -23.570312 5.515625 -29.34375 C 5.515625 -35.039062 6.726562 -40.15625 9.15625 -44.6875 C 11.59375 -49.226562 14.945312 -52.773438 19.21875 -55.328125 C 23.5 -57.878906 28.300781 -59.15625 33.625 -59.15625 C 38.945312 -59.15625 43.722656 -57.894531 47.953125 -55.375 C 52.191406 -52.863281 55.53125 -49.359375 57.96875 -44.859375 C 60.40625 -40.367188 61.625 -35.273438 61.625 -29.578125 Z M 33.625 -54.203125 C 29.5 -54.203125 25.785156 -53.28125 22.484375 -51.4375 C 19.191406 -49.601562 16.550781 -47.019531 14.5625 -43.6875 C 12.570312 -40.351562 11.429688 -36.585938 11.140625 -32.390625 L 56.109375 -32.390625 C 55.890625 -36.585938 54.765625 -40.332031 52.734375 -43.625 C 50.710938 -46.925781 48.050781 -49.515625 44.75 -51.390625 C 41.457031 -53.265625 37.75 -54.203125 33.625 -54.203125 Z M 33.625 -54.203125 "/></g></g></g><g fill="#ffffff" fill-opacity="1"><g transform="translate(124.59349, 108.0911)"><g><path d="M 26.765625 0.453125 C 22.035156 0.453125 17.535156 -0.257812 13.265625 -1.6875 C 8.992188 -3.113281 5.660156 -4.910156 3.265625 -7.078125 L 5.84375 -11.578125 C 8.25 -9.554688 11.34375 -7.867188 15.125 -6.515625 C 18.90625 -5.171875 22.859375 -4.5 26.984375 -4.5 C 32.910156 -4.5 37.28125 -5.472656 40.09375 -7.421875 C 42.90625 -9.367188 44.3125 -12.066406 44.3125 -15.515625 C 44.3125 -17.992188 43.539062 -19.941406 42 -21.359375 C 40.46875 -22.785156 38.578125 -23.835938 36.328125 -24.515625 C 34.078125 -25.191406 30.960938 -25.90625 26.984375 -26.65625 C 22.335938 -27.476562 18.585938 -28.375 15.734375 -29.34375 C 12.890625 -30.320312 10.453125 -31.894531 8.421875 -34.0625 C 6.398438 -36.238281 5.390625 -39.238281 5.390625 -43.0625 C 5.390625 -47.71875 7.320312 -51.5625 11.1875 -54.59375 C 15.050781 -57.632812 20.539062 -59.15625 27.65625 -59.15625 C 31.40625 -59.15625 35.117188 -58.628906 38.796875 -57.578125 C 42.472656 -56.523438 45.472656 -55.140625 47.796875 -53.421875 L 45.203125 -48.921875 C 42.804688 -50.640625 40.070312 -51.945312 37 -52.84375 C 33.925781 -53.75 30.773438 -54.203125 27.546875 -54.203125 C 22.078125 -54.203125 17.953125 -53.1875 15.171875 -51.15625 C 12.398438 -49.132812 11.015625 -46.476562 11.015625 -43.1875 C 11.015625 -40.5625 11.800781 -38.515625 13.375 -37.046875 C 14.957031 -35.585938 16.890625 -34.5 19.171875 -33.78125 C 21.460938 -33.070312 24.664062 -32.304688 28.78125 -31.484375 C 33.351562 -30.660156 37.046875 -29.78125 39.859375 -28.84375 C 42.671875 -27.90625 45.050781 -26.382812 47 -24.28125 C 48.945312 -22.1875 49.921875 -19.300781 49.921875 -15.625 C 49.921875 -10.757812 47.894531 -6.863281 43.84375 -3.9375 C 39.800781 -1.007812 34.109375 0.453125 26.765625 0.453125 Z M 26.765625 0.453125 "/></g></g></g><g fill="#ffffff" fill-opacity="1"><g transform="translate(169.1066, 108.0911)"><g><path d="M 11.921875 -58.703125 L 17.546875 -58.703125 L 17.546875 0 L 11.921875 0 Z M 14.734375 -72.984375 C 13.460938 -72.984375 12.375 -73.410156 11.46875 -74.265625 C 10.570312 -75.128906 10.125 -76.203125 10.125 -77.484375 C 10.125 -78.753906 10.570312 -79.835938 11.46875 -80.734375 C 12.375 -81.640625 13.460938 -82.09375 14.734375 -82.09375 C 16.003906 -82.09375 17.085938 -81.660156 17.984375 -80.796875 C 18.890625 -79.929688 19.34375 -78.863281 19.34375 -77.59375 C 19.34375 -76.320312 18.890625 -75.234375 17.984375 -74.328125 C 17.085938 -73.429688 16.003906 -72.984375 14.734375 -72.984375 Z M 14.734375 -72.984375 "/></g></g></g><g fill="#ffffff" fill-opacity="1"><g transform="translate(189.225177, 108.0911)"><g><path d="M 64.765625 -58.703125 L 64.765625 -6.296875 C 64.765625 3.453125 62.40625 10.648438 57.6875 15.296875 C 52.96875 19.941406 45.847656 22.265625 36.328125 22.265625 C 30.921875 22.265625 25.816406 21.4375 21.015625 19.78125 C 16.222656 18.132812 12.367188 15.851562 9.453125 12.9375 L 12.484375 8.65625 C 15.410156 11.351562 18.929688 13.453125 23.046875 14.953125 C 27.171875 16.453125 31.554688 17.203125 36.203125 17.203125 C 44.003906 17.203125 49.78125 15.347656 53.53125 11.640625 C 57.28125 7.929688 59.15625 2.175781 59.15625 -5.625 L 59.15625 -15.515625 C 56.75 -11.242188 53.410156 -7.945312 49.140625 -5.625 C 44.867188 -3.300781 40.070312 -2.140625 34.75 -2.140625 C 29.269531 -2.140625 24.300781 -3.359375 19.84375 -5.796875 C 15.382812 -8.234375 11.878906 -11.625 9.328125 -15.96875 C 6.785156 -20.3125 5.515625 -25.222656 5.515625 -30.703125 C 5.515625 -36.171875 6.785156 -41.078125 9.328125 -45.421875 C 11.878906 -49.773438 15.382812 -53.148438 19.84375 -55.546875 C 24.300781 -57.953125 29.269531 -59.15625 34.75 -59.15625 C 40.144531 -59.15625 45.015625 -57.953125 49.359375 -55.546875 C 53.710938 -53.148438 57.050781 -49.78125 59.375 -45.4375 L 59.375 -58.703125 Z M 35.203125 -7.203125 C 39.773438 -7.203125 43.894531 -8.191406 47.5625 -10.171875 C 51.238281 -12.160156 54.109375 -14.9375 56.171875 -18.5 C 58.234375 -22.0625 59.265625 -26.128906 59.265625 -30.703125 C 59.265625 -35.273438 58.234375 -39.320312 56.171875 -42.84375 C 54.109375 -46.363281 51.238281 -49.117188 47.5625 -51.109375 C 43.894531 -53.097656 39.773438 -54.09375 35.203125 -54.09375 C 30.628906 -54.09375 26.523438 -53.097656 22.890625 -51.109375 C 19.253906 -49.117188 16.40625 -46.363281 14.34375 -42.84375 C 12.28125 -39.320312 11.25 -35.273438 11.25 -30.703125 C 11.25 -26.128906 12.28125 -22.0625 14.34375 -18.5 C 16.40625 -14.9375 19.253906 -12.160156 22.890625 -10.171875 C 26.523438 -8.191406 30.628906 -7.203125 35.203125 -7.203125 Z M 35.203125 -7.203125 "/></g></g></g><g fill="#ffffff" fill-opacity="1"><g transform="translate(256.671439, 108.0911)"><g><path d="M 40.59375 -59.15625 C 47.9375 -59.15625 53.742188 -57.015625 58.015625 -52.734375 C 62.296875 -48.460938 64.4375 -42.316406 64.4375 -34.296875 L 64.4375 0 L 58.8125 0 L 58.8125 -33.84375 C 58.8125 -40.445312 57.144531 -45.472656 53.8125 -48.921875 C 50.476562 -52.367188 45.8125 -54.09375 39.8125 -54.09375 C 32.914062 -54.09375 27.476562 -52.03125 23.5 -47.90625 C 19.53125 -43.78125 17.546875 -38.234375 17.546875 -31.265625 L 17.546875 0 L 11.921875 0 L 11.921875 -58.703125 L 17.3125 -58.703125 L 17.3125 -46 C 19.34375 -50.113281 22.363281 -53.332031 26.375 -55.65625 C 30.382812 -57.988281 35.125 -59.15625 40.59375 -59.15625 Z M 40.59375 -59.15625 "/></g></g></g><g fill="#ffffff" fill-opacity="1"><g transform="translate(323.105918, 108.0911)"><g><path d="M 26.765625 0.453125 C 22.035156 0.453125 17.535156 -0.257812 13.265625 -1.6875 C 8.992188 -3.113281 5.660156 -4.910156 3.265625 -7.078125 L 5.84375 -11.578125 C 8.25 -9.554688 11.34375 -7.867188 15.125 -6.515625 C 18.90625 -5.171875 22.859375 -4.5 26.984375 -4.5 C 32.910156 -4.5 37.28125 -5.472656 40.09375 -7.421875 C 42.90625 -9.367188 44.3125 -12.066406 44.3125 -15.515625 C 44.3125 -17.992188 43.539062 -19.941406 42 -21.359375 C 40.46875 -22.785156 38.578125 -23.835938 36.328125 -24.515625 C 34.078125 -25.191406 30.960938 -25.90625 26.984375 -26.65625 C 22.335938 -27.476562 18.585938 -28.375 15.734375 -29.34375 C 12.890625 -30.320312 10.453125 -31.894531 8.421875 -34.0625 C 6.398438 -36.238281 5.390625 -39.238281 5.390625 -43.0625 C 5.390625 -47.71875 7.320312 -51.5625 11.1875 -54.59375 C 15.050781 -57.632812 20.539062 -59.15625 27.65625 -59.15625 C 31.40625 -59.15625 35.117188 -58.628906 38.796875 -57.578125 C 42.472656 -56.523438 45.472656 -55.140625 47.796875 -53.421875 L 45.203125 -48.921875 C 42.804688 -50.640625 40.070312 -51.945312 37 -52.84375 C 33.925781 -53.75 30.773438 -54.203125 27.546875 -54.203125 C 22.078125 -54.203125 17.953125 -53.1875 15.171875 -51.15625 C 12.398438 -49.132812 11.015625 -46.476562 11.015625 -43.1875 C 11.015625 -40.5625 11.800781 -38.515625 13.375 -37.046875 C 14.957031 -35.585938 16.890625 -34.5 19.171875 -33.78125 C 21.460938 -33.070312 24.664062 -32.304688 28.78125 -31.484375 C 33.351562 -30.660156 37.046875 -29.78125 39.859375 -28.84375 C 42.671875 -27.90625 45.050781 -26.382812 47 -24.28125 C 48.945312 -22.1875 49.921875 -19.300781 49.921875 -15.625 C 49.921875 -10.757812 47.894531 -6.863281 43.84375 -3.9375 C 39.800781 -1.007812 34.109375 0.453125 26.765625 0.453125 Z M 26.765625 0.453125 "/></g></g></g></g></g><g clip-path="url(#1914155a1a)"><g transform="matrix(1, 0, 0, 1, 183, 147)"><g clip-path="url(#9aba901ce7)"><g fill="#ffffff" fill-opacity="1"><g transform="translate(2.155849, 21.934406)"><g><path d="M 8.53125 -14.703125 C 9.664062 -14.554688 10.671875 -14.195312 11.546875 -13.625 C 12.429688 -13.0625 13.125 -12.273438 13.625 -11.265625 C 14.125 -10.265625 14.375 -9.03125 14.375 -7.5625 C 14.375 -6.101562 14.113281 -4.84375 13.59375 -3.78125 C 13.082031 -2.71875 12.375 -1.867188 11.46875 -1.234375 C 10.570312 -0.609375 9.554688 -0.222656 8.421875 -0.078125 C 8.046875 -0.0351562 7.738281 -0.0078125 7.5 0 C 7.257812 0 6.9375 0 6.53125 0 L 2.140625 0 L 2.140625 -14.78125 L 6.640625 -14.78125 C 7.035156 -14.78125 7.351562 -14.773438 7.59375 -14.765625 C 7.84375 -14.765625 8.15625 -14.742188 8.53125 -14.703125 Z M 8.21875 -1.609375 C 9.476562 -1.804688 10.484375 -2.410156 11.234375 -3.421875 C 11.984375 -4.441406 12.359375 -5.820312 12.359375 -7.5625 C 12.359375 -9.207031 12 -10.503906 11.28125 -11.453125 C 10.570312 -12.398438 9.585938 -12.972656 8.328125 -13.171875 C 8.097656 -13.210938 7.835938 -13.238281 7.546875 -13.25 C 7.253906 -13.269531 6.914062 -13.28125 6.53125 -13.28125 L 3.984375 -13.28125 L 3.984375 -1.5 L 6.421875 -1.5 C 6.804688 -1.5 7.144531 -1.503906 7.4375 -1.515625 C 7.738281 -1.535156 8 -1.566406 8.21875 -1.609375 Z M 8.21875 -1.609375 "/></g></g></g><g fill="#ffffff" fill-opacity="1"><g transform="translate(24.331997, 21.934406)"><g><path d="M 11.96875 -1.5 L 11.96875 0 L 2.140625 0 L 2.140625 -14.78125 L 11.765625 -14.78125 L 11.765625 -13.28125 L 3.984375 -13.28125 L 3.984375 -8.140625 L 11.125 -8.140625 L 11.125 -6.640625 L 3.984375 -6.640625 L 3.984375 -1.5 Z M 11.96875 -1.5 "/></g></g></g><g fill="#ffffff" fill-opacity="1"><g transform="translate(43.894146, 21.934406)"><g><path d="M 6.71875 -15.078125 C 7.75 -15.078125 8.613281 -14.890625 9.3125 -14.515625 C 10.019531 -14.140625 10.566406 -13.617188 10.953125 -12.953125 C 11.347656 -12.285156 11.585938 -11.53125 11.671875 -10.6875 L 9.703125 -10.6875 C 9.617188 -11.613281 9.304688 -12.332031 8.765625 -12.84375 C 8.234375 -13.363281 7.503906 -13.625 6.578125 -13.625 C 5.785156 -13.625 5.117188 -13.4375 4.578125 -13.0625 C 4.035156 -12.695312 3.765625 -12.128906 3.765625 -11.359375 C 3.765625 -10.554688 4.007812 -9.953125 4.5 -9.546875 C 5 -9.140625 5.8125 -8.804688 6.9375 -8.546875 C 8.5625 -8.171875 9.78125 -7.625 10.59375 -6.90625 C 11.414062 -6.195312 11.828125 -5.21875 11.828125 -3.96875 C 11.828125 -3.09375 11.597656 -2.335938 11.140625 -1.703125 C 10.691406 -1.066406 10.085938 -0.570312 9.328125 -0.21875 C 8.566406 0.125 7.707031 0.296875 6.75 0.296875 C 5.125 0.296875 3.816406 -0.09375 2.828125 -0.875 C 1.835938 -1.664062 1.265625 -2.773438 1.109375 -4.203125 L 3.078125 -4.203125 C 3.296875 -3.222656 3.726562 -2.46875 4.375 -1.9375 C 5.03125 -1.414062 5.835938 -1.15625 6.796875 -1.15625 C 7.628906 -1.15625 8.347656 -1.375 8.953125 -1.8125 C 9.554688 -2.25 9.859375 -2.851562 9.859375 -3.625 C 9.859375 -4.519531 9.578125 -5.203125 9.015625 -5.671875 C 8.460938 -6.148438 7.535156 -6.535156 6.234375 -6.828125 C 5.359375 -7.035156 4.585938 -7.300781 3.921875 -7.625 C 3.265625 -7.957031 2.742188 -8.382812 2.359375 -8.90625 C 1.984375 -9.4375 1.796875 -10.109375 1.796875 -10.921875 C 1.796875 -11.773438 2.015625 -12.515625 2.453125 -13.140625 C 2.898438 -13.765625 3.5 -14.242188 4.25 -14.578125 C 5 -14.910156 5.820312 -15.078125 6.71875 -15.078125 Z M 6.71875 -15.078125 "/></g></g></g><g fill="#ffffff" fill-opacity="1"><g transform="translate(63.413439, 21.934406)"><g><path d="M 3.984375 0 L 2.140625 0 L 2.140625 -14.78125 L 3.984375 -14.78125 Z M 3.984375 0 "/></g></g></g><g fill="#ffffff" fill-opacity="1"><g transform="translate(76.054901, 21.934406)"><g><path d="M 8.546875 -7.140625 L 13.84375 -7.140625 L 13.84375 0 L 12.203125 0 L 12.203125 -2.578125 L 11.546875 -1.203125 C 11.128906 -0.734375 10.59375 -0.363281 9.9375 -0.09375 C 9.289062 0.164062 8.550781 0.296875 7.71875 0.296875 C 6.28125 0.296875 5.0625 -0.0351562 4.0625 -0.703125 C 3.070312 -1.378906 2.3125 -2.289062 1.78125 -3.4375 C 1.257812 -4.582031 1 -5.878906 1 -7.328125 C 1 -8.828125 1.285156 -10.160156 1.859375 -11.328125 C 2.441406 -12.503906 3.257812 -13.421875 4.3125 -14.078125 C 5.363281 -14.742188 6.585938 -15.078125 7.984375 -15.078125 C 9.242188 -15.078125 10.300781 -14.859375 11.15625 -14.421875 C 12.019531 -13.992188 12.6875 -13.40625 13.15625 -12.65625 C 13.625 -11.90625 13.910156 -11.039062 14.015625 -10.0625 L 14.03125 -9.859375 L 12.1875 -9.859375 L 12.140625 -10.0625 C 11.929688 -11.125 11.488281 -11.984375 10.8125 -12.640625 C 10.132812 -13.296875 9.179688 -13.625 7.953125 -13.625 C 6.953125 -13.625 6.082031 -13.351562 5.34375 -12.8125 C 4.601562 -12.28125 4.035156 -11.546875 3.640625 -10.609375 C 3.253906 -9.679688 3.0625 -8.613281 3.0625 -7.40625 C 3.0625 -6.195312 3.253906 -5.117188 3.640625 -4.171875 C 4.023438 -3.234375 4.570312 -2.492188 5.28125 -1.953125 C 6 -1.421875 6.84375 -1.15625 7.8125 -1.15625 C 8.613281 -1.15625 9.328125 -1.34375 9.953125 -1.71875 C 10.585938 -2.101562 11.085938 -2.632812 11.453125 -3.3125 C 11.816406 -3.988281 12 -4.765625 12 -5.640625 L 8.546875 -5.640625 Z M 8.546875 -7.140625 "/></g></g></g><g fill="#ffffff" fill-opacity="1"><g transform="translate(98.25249, 21.934406)"><g><path d="M 13.703125 0 L 10.875 0 L 3.921875 -12.984375 C 3.953125 -12.109375 3.96875 -11.175781 3.96875 -10.1875 C 3.976562 -9.195312 3.984375 -8.265625 3.984375 -7.390625 L 3.984375 0 L 2.140625 0 L 2.140625 -14.78125 L 4.96875 -14.78125 L 11.9375 -1.796875 C 11.914062 -2.671875 11.898438 -3.601562 11.890625 -4.59375 C 11.878906 -5.582031 11.875 -6.515625 11.875 -7.390625 L 11.875 -14.78125 L 13.671875 -14.78125 Z M 13.703125 0 "/></g></g></g><g fill="#ffffff" fill-opacity="1"><g transform="translate(120.621477, 21.934406)"><g><path d="M 3.984375 0 L 2.140625 0 L 2.140625 -14.78125 L 3.984375 -14.78125 Z M 3.984375 0 "/></g></g></g><g fill="#ffffff" fill-opacity="1"><g transform="translate(133.262938, 21.934406)"><g><path d="M 13.703125 0 L 10.875 0 L 3.921875 -12.984375 C 3.953125 -12.109375 3.96875 -11.175781 3.96875 -10.1875 C 3.976562 -9.195312 3.984375 -8.265625 3.984375 -7.390625 L 3.984375 0 L 2.140625 0 L 2.140625 -14.78125 L 4.96875 -14.78125 L 11.9375 -1.796875 C 11.914062 -2.671875 11.898438 -3.601562 11.890625 -4.59375 C 11.878906 -5.582031 11.875 -6.515625 11.875 -7.390625 L 11.875 -14.78125 L 13.671875 -14.78125 Z M 13.703125 0 "/></g></g></g><g fill="#ffffff" fill-opacity="1"><g transform="translate(155.631924, 21.934406)"><g><path d="M 8.546875 -7.140625 L 13.84375 -7.140625 L 13.84375 0 L 12.203125 0 L 12.203125 -2.578125 L 11.546875 -1.203125 C 11.128906 -0.734375 10.59375 -0.363281 9.9375 -0.09375 C 9.289062 0.164062 8.550781 0.296875 7.71875 0.296875 C 6.28125 0.296875 5.0625 -0.0351562 4.0625 -0.703125 C 3.070312 -1.378906 2.3125 -2.289062 1.78125 -3.4375 C 1.257812 -4.582031 1 -5.878906 1 -7.328125 C 1 -8.828125 1.285156 -10.160156 1.859375 -11.328125 C 2.441406 -12.503906 3.257812 -13.421875 4.3125 -14.078125 C 5.363281 -14.742188 6.585938 -15.078125 7.984375 -15.078125 C 9.242188 -15.078125 10.300781 -14.859375 11.15625 -14.421875 C 12.019531 -13.992188 12.6875 -13.40625 13.15625 -12.65625 C 13.625 -11.90625 13.910156 -11.039062 14.015625 -10.0625 L 14.03125 -9.859375 L 12.1875 -9.859375 L 12.140625 -10.0625 C 11.929688 -11.125 11.488281 -11.984375 10.8125 -12.640625 C 10.132812 -13.296875 9.179688 -13.625 7.953125 -13.625 C 6.953125 -13.625 6.082031 -13.351562 5.34375 -12.8125 C 4.601562 -12.28125 4.035156 -11.546875 3.640625 -10.609375 C 3.253906 -9.679688 3.0625 -8.613281 3.0625 -7.40625 C 3.0625 -6.195312 3.253906 -5.117188 3.640625 -4.171875 C 4.023438 -3.234375 4.570312 -2.492188 5.28125 -1.953125 C 6 -1.421875 6.84375 -1.15625 7.8125 -1.15625 C 8.613281 -1.15625 9.328125 -1.34375 9.953125 -1.71875 C 10.585938 -2.101562 11.085938 -2.632812 11.453125 -3.3125 C 11.816406 -3.988281 12 -4.765625 12 -5.640625 L 8.546875 -5.640625 Z M 8.546875 -7.140625 "/></g></g></g><g fill="#ffffff" fill-opacity="1"><g transform="translate(177.829514, 21.934406)"><g/></g></g><g fill="#ffffff" fill-opacity="1"><g transform="translate(189.442513, 21.934406)"><g><path d="M 20.25 -14.78125 L 16.125 0 L 13.703125 0 L 10.375 -12.75 L 6.890625 0 L 4.453125 0 L 0.5625 -14.78125 L 2.65625 -14.78125 L 5.765625 -1.65625 L 9.1875 -14.5625 L 11.671875 -14.5625 L 15.015625 -1.625 L 18.296875 -14.78125 Z M 20.25 -14.78125 "/></g></g></g><g fill="#ffffff" fill-opacity="1"><g transform="translate(216.825271, 21.934406)"><g><path d="M 3.984375 0 L 2.140625 0 L 2.140625 -14.78125 L 3.984375 -14.78125 Z M 3.984375 0 "/></g></g></g><g fill="#ffffff" fill-opacity="1"><g transform="translate(229.466733, 21.934406)"><g><path d="M 13.109375 -13.28125 L 7.84375 -13.28125 L 7.84375 0 L 6 0 L 6 -13.28125 L 0.734375 -13.28125 L 0.734375 -14.78125 L 13.109375 -14.78125 Z M 13.109375 -13.28125 "/></g></g></g><g fill="#ffffff" fill-opacity="1"><g transform="translate(249.564541, 21.934406)"><g><path d="M 13.96875 -14.78125 L 13.96875 0 L 12.125 0 L 12.125 -6.46875 L 3.984375 -6.46875 L 3.984375 0 L 2.140625 0 L 2.140625 -14.78125 L 3.984375 -14.78125 L 3.984375 -8.015625 L 12.125 -8.015625 L 12.125 -14.78125 Z M 13.96875 -14.78125 "/></g></g></g><g fill="#ffffff" fill-opacity="1"><g transform="translate(272.190636, 21.934406)"><g/></g></g><g fill="#ffffff" fill-opacity="1"><g transform="translate(283.803635, 21.934406)"><g><path d="M 8.65625 -14.703125 C 9.84375 -14.554688 10.773438 -14.117188 11.453125 -13.390625 C 12.140625 -12.660156 12.484375 -11.664062 12.484375 -10.40625 C 12.484375 -9.582031 12.3125 -8.863281 11.96875 -8.25 C 11.625 -7.644531 11.160156 -7.164062 10.578125 -6.8125 C 10.003906 -6.457031 9.363281 -6.226562 8.65625 -6.125 C 8.320312 -6.082031 8.007812 -6.054688 7.71875 -6.046875 C 7.425781 -6.046875 7.09375 -6.046875 6.71875 -6.046875 L 3.984375 -6.046875 L 3.984375 0 L 2.140625 0 L 2.140625 -14.78125 L 6.71875 -14.78125 C 7.09375 -14.78125 7.425781 -14.773438 7.71875 -14.765625 C 8.007812 -14.765625 8.320312 -14.742188 8.65625 -14.703125 Z M 8.546875 -7.6875 C 9.078125 -7.800781 9.535156 -8.066406 9.921875 -8.484375 C 10.316406 -8.910156 10.515625 -9.550781 10.515625 -10.40625 C 10.515625 -11.269531 10.316406 -11.910156 9.921875 -12.328125 C 9.535156 -12.742188 9.078125 -13.007812 8.546875 -13.125 C 8.347656 -13.175781 8.101562 -13.207031 7.8125 -13.21875 C 7.53125 -13.226562 7.222656 -13.234375 6.890625 -13.234375 L 3.984375 -13.234375 L 3.984375 -7.578125 L 6.890625 -7.578125 C 7.222656 -7.578125 7.53125 -7.582031 7.8125 -7.59375 C 8.101562 -7.613281 8.347656 -7.644531 8.546875 -7.6875 Z M 8.546875 -7.6875 "/></g></g></g><g fill="#ffffff" fill-opacity="1"><g transform="translate(303.601479, 21.934406)"><g><path d="M 11.875 -3.875 C 11.957031 -2.914062 12.066406 -2.128906 12.203125 -1.515625 C 12.335938 -0.898438 12.554688 -0.394531 12.859375 0 L 10.8125 0 C 10.613281 -0.46875 10.457031 -0.972656 10.34375 -1.515625 C 10.226562 -2.054688 10.125 -2.785156 10.03125 -3.703125 C 9.9375 -4.460938 9.722656 -5.078125 9.390625 -5.546875 C 9.066406 -6.015625 8.539062 -6.28125 7.8125 -6.34375 C 7.644531 -6.351562 7.472656 -6.359375 7.296875 -6.359375 C 7.117188 -6.359375 6.941406 -6.359375 6.765625 -6.359375 L 3.984375 -6.359375 L 3.984375 0 L 2.140625 0 L 2.140625 -14.78125 L 6.984375 -14.78125 C 7.359375 -14.78125 7.691406 -14.773438 7.984375 -14.765625 C 8.273438 -14.765625 8.582031 -14.742188 8.90625 -14.703125 C 9.976562 -14.554688 10.859375 -14.171875 11.546875 -13.546875 C 12.242188 -12.929688 12.59375 -12 12.59375 -10.75 C 12.59375 -10.113281 12.46875 -9.554688 12.21875 -9.078125 C 11.96875 -8.609375 11.640625 -8.222656 11.234375 -7.921875 C 10.835938 -7.617188 10.414062 -7.398438 9.96875 -7.265625 C 10.5625 -6.992188 11.007812 -6.546875 11.3125 -5.921875 C 11.625 -5.296875 11.8125 -4.613281 11.875 -3.875 Z M 3.984375 -7.859375 L 6.8125 -7.859375 C 7.144531 -7.859375 7.414062 -7.863281 7.625 -7.875 C 7.84375 -7.882812 8.050781 -7.894531 8.25 -7.90625 C 8.9375 -7.976562 9.503906 -8.234375 9.953125 -8.671875 C 10.398438 -9.117188 10.625 -9.753906 10.625 -10.578125 C 10.625 -11.410156 10.429688 -12.03125 10.046875 -12.4375 C 9.671875 -12.84375 9.144531 -13.097656 8.46875 -13.203125 C 8.101562 -13.253906 7.609375 -13.28125 6.984375 -13.28125 L 3.984375 -13.28125 Z M 3.984375 -7.859375 "/></g></g></g><g fill="#ffffff" fill-opacity="1"><g transform="translate(323.84927, 21.934406)"><g><path d="M 11.96875 -1.5 L 11.96875 0 L 2.140625 0 L 2.140625 -14.78125 L 11.765625 -14.78125 L 11.765625 -13.28125 L 3.984375 -13.28125 L 3.984375 -8.140625 L 11.125 -8.140625 L 11.125 -6.640625 L 3.984375 -6.640625 L 3.984375 -1.5 Z M 11.96875 -1.5 "/></g></g></g><g fill="#ffffff" fill-opacity="1"><g transform="translate(343.411419, 21.934406)"><g><path d="M 7.984375 -15.078125 C 9.242188 -15.078125 10.300781 -14.859375 11.15625 -14.421875 C 12.019531 -13.992188 12.6875 -13.40625 13.15625 -12.65625 C 13.625 -11.90625 13.910156 -11.039062 14.015625 -10.0625 L 14.03125 -9.859375 L 12.1875 -9.859375 L 12.140625 -10.0625 C 11.929688 -11.125 11.488281 -11.984375 10.8125 -12.640625 C 10.132812 -13.296875 9.179688 -13.625 7.953125 -13.625 C 6.953125 -13.625 6.082031 -13.351562 5.34375 -12.8125 C 4.601562 -12.28125 4.035156 -11.546875 3.640625 -10.609375 C 3.253906 -9.679688 3.0625 -8.613281 3.0625 -7.40625 C 3.0625 -6.195312 3.253906 -5.117188 3.640625 -4.171875 C 4.023438 -3.234375 4.570312 -2.492188 5.28125 -1.953125 C 6 -1.421875 6.84375 -1.15625 7.8125 -1.15625 C 9.039062 -1.15625 9.992188 -1.484375 10.671875 -2.140625 C 11.359375 -2.796875 11.804688 -3.65625 12.015625 -4.71875 L 12.0625 -4.921875 L 13.90625 -4.921875 L 13.875 -4.71875 C 13.789062 -3.832031 13.503906 -3.003906 13.015625 -2.234375 C 12.535156 -1.472656 11.851562 -0.859375 10.96875 -0.390625 C 10.09375 0.0664062 9.007812 0.296875 7.71875 0.296875 C 6.28125 0.296875 5.0625 -0.0351562 4.0625 -0.703125 C 3.070312 -1.378906 2.3125 -2.289062 1.78125 -3.4375 C 1.257812 -4.582031 1 -5.878906 1 -7.328125 C 1 -8.828125 1.285156 -10.160156 1.859375 -11.328125 C 2.441406 -12.503906 3.257812 -13.421875 4.3125 -14.078125 C 5.363281 -14.742188 6.585938 -15.078125 7.984375 -15.078125 Z M 7.984375 -15.078125 "/></g></g></g><g fill="#ffffff" fill-opacity="1"><g transform="translate(365.373314, 21.934406)"><g><path d="M 3.984375 0 L 2.140625 0 L 2.140625 -14.78125 L 3.984375 -14.78125 Z M 3.984375 0 "/></g></g></g><g fill="#ffffff" fill-opacity="1"><g transform="translate(378.014775, 21.934406)"><g><path d="M 6.71875 -15.078125 C 7.75 -15.078125 8.613281 -14.890625 9.3125 -14.515625 C 10.019531 -14.140625 10.566406 -13.617188 10.953125 -12.953125 C 11.347656 -12.285156 11.585938 -11.53125 11.671875 -10.6875 L 9.703125 -10.6875 C 9.617188 -11.613281 9.304688 -12.332031 8.765625 -12.84375 C 8.234375 -13.363281 7.503906 -13.625 6.578125 -13.625 C 5.785156 -13.625 5.117188 -13.4375 4.578125 -13.0625 C 4.035156 -12.695312 3.765625 -12.128906 3.765625 -11.359375 C 3.765625 -10.554688 4.007812 -9.953125 4.5 -9.546875 C 5 -9.140625 5.8125 -8.804688 6.9375 -8.546875 C 8.5625 -8.171875 9.78125 -7.625 10.59375 -6.90625 C 11.414062 -6.195312 11.828125 -5.21875 11.828125 -3.96875 C 11.828125 -3.09375 11.597656 -2.335938 11.140625 -1.703125 C 10.691406 -1.066406 10.085938 -0.570312 9.328125 -0.21875 C 8.566406 0.125 7.707031 0.296875 6.75 0.296875 C 5.125 0.296875 3.816406 -0.09375 2.828125 -0.875 C 1.835938 -1.664062 1.265625 -2.773438 1.109375 -4.203125 L 3.078125 -4.203125 C 3.296875 -3.222656 3.726562 -2.46875 4.375 -1.9375 C 5.03125 -1.414062 5.835938 -1.15625 6.796875 -1.15625 C 7.628906 -1.15625 8.347656 -1.375 8.953125 -1.8125 C 9.554688 -2.25 9.859375 -2.851562 9.859375 -3.625 C 9.859375 -4.519531 9.578125 -5.203125 9.015625 -5.671875 C 8.460938 -6.148438 7.535156 -6.535156 6.234375 -6.828125 C 5.359375 -7.035156 4.585938 -7.300781 3.921875 -7.625 C 3.265625 -7.957031 2.742188 -8.382812 2.359375 -8.90625 C 1.984375 -9.4375 1.796875 -10.109375 1.796875 -10.921875 C 1.796875 -11.773438 2.015625 -12.515625 2.453125 -13.140625 C 2.898438 -13.765625 3.5 -14.242188 4.25 -14.578125 C 5 -14.910156 5.820312 -15.078125 6.71875 -15.078125 Z M 6.71875 -15.078125 "/></g></g></g><g fill="#ffffff" fill-opacity="1"><g transform="translate(397.534068, 21.934406)"><g><path d="M 3.984375 0 L 2.140625 0 L 2.140625 -14.78125 L 3.984375 -14.78125 Z M 3.984375 0 "/></g></g></g><g fill="#ffffff" fill-opacity="1"><g transform="translate(410.17553, 21.934406)"><g><path d="M 7.984375 -15.078125 C 9.484375 -15.078125 10.753906 -14.75 11.796875 -14.09375 C 12.847656 -13.4375 13.640625 -12.53125 14.171875 -11.375 C 14.703125 -10.226562 14.96875 -8.898438 14.96875 -7.390625 C 14.96875 -5.890625 14.703125 -4.5625 14.171875 -3.40625 C 13.640625 -2.25 12.847656 -1.34375 11.796875 -0.6875 C 10.753906 -0.03125 9.484375 0.296875 7.984375 0.296875 C 6.484375 0.296875 5.21875 -0.03125 4.1875 -0.6875 C 3.15625 -1.34375 2.363281 -2.25 1.8125 -3.40625 C 1.269531 -4.5625 1 -5.890625 1 -7.390625 C 1 -8.898438 1.269531 -10.226562 1.8125 -11.375 C 2.363281 -12.53125 3.15625 -13.4375 4.1875 -14.09375 C 5.21875 -14.75 6.484375 -15.078125 7.984375 -15.078125 Z M 7.984375 -1.15625 C 9.546875 -1.15625 10.757812 -1.710938 11.625 -2.828125 C 12.488281 -3.953125 12.921875 -5.472656 12.921875 -7.390625 C 12.921875 -9.316406 12.488281 -10.835938 11.625 -11.953125 C 10.757812 -13.066406 9.546875 -13.625 7.984375 -13.625 C 6.429688 -13.625 5.222656 -13.066406 4.359375 -11.953125 C 3.492188 -10.835938 3.0625 -9.316406 3.0625 -7.390625 C 3.0625 -5.472656 3.492188 -3.953125 4.359375 -2.828125 C 5.222656 -1.710938 6.429688 -1.15625 7.984375 -1.15625 Z M 7.984375 -1.15625 "/></g></g></g><g fill="#ffffff" fill-opacity="1"><g transform="translate(432.951608, 21.934406)"><g><path d="M 13.703125 0 L 10.875 0 L 3.921875 -12.984375 C 3.953125 -12.109375 3.96875 -11.175781 3.96875 -10.1875 C 3.976562 -9.195312 3.984375 -8.265625 3.984375 -7.390625 L 3.984375 0 L 2.140625 0 L 2.140625 -14.78125 L 4.96875 -14.78125 L 11.9375 -1.796875 C 11.914062 -2.671875 11.898438 -3.601562 11.890625 -4.59375 C 11.878906 -5.582031 11.875 -6.515625 11.875 -7.390625 L 11.875 -14.78125 L 13.671875 -14.78125 Z M 13.703125 0 "/></g></g></g></g></g></g></g></g></g></svg>