<svg xmlns="http://www.w3.org/2000/svg" xmlns:xlink="http://www.w3.org/1999/xlink" width="258" zoomAndPan="magnify" viewBox="0 0 193.5 57.749997" height="77" preserveAspectRatio="xMidYMid meet" version="1.0"><defs><g/><clipPath id="00df71e1a6"><path d="M 0.167969 0 L 192.835938 0 L 192.835938 57.5 L 0.167969 57.5 Z M 0.167969 0 " clip-rule="nonzero"/></clipPath><clipPath id="2e80ba66b2"><path d="M 184.066406 25.03125 L 192.3125 25.03125 L 192.3125 33.277344 L 184.066406 33.277344 Z M 184.066406 25.03125 " clip-rule="nonzero"/></clipPath></defs><g clip-path="url(#00df71e1a6)"><path fill="#ffffff" d="M 0.167969 0 L 192.835938 0 L 192.835938 57.5 L 0.167969 57.5 Z M 0.167969 0 " fill-opacity="1" fill-rule="nonzero"/><path fill="#ffffff" d="M 0.167969 0 L 192.835938 0 L 192.835938 57.5 L 0.167969 57.5 Z M 0.167969 0 " fill-opacity="1" fill-rule="nonzero"/></g><g clip-path="url(#2e80ba66b2)"><path fill="#000000" d="M 185.480469 27.71875 L 187.761719 27.71875 L 187.761719 28.203125 L 186.910156 28.203125 L 186.910156 30.589844 L 186.332031 30.589844 L 186.332031 28.203125 L 185.480469 28.203125 Z M 190.03125 27.71875 L 189.519531 29.675781 L 188.996094 27.71875 L 188.128906 27.71875 L 188.128906 30.589844 L 188.667969 30.589844 L 188.667969 28.328125 L 189.234375 30.589844 L 189.792969 30.589844 L 190.363281 28.328125 L 190.363281 30.589844 L 190.902344 30.589844 L 190.902344 27.71875 Z M 192.3125 29.152344 C 192.3125 31.425781 190.464844 33.277344 188.191406 33.277344 C 185.917969 33.277344 184.066406 31.425781 184.066406 29.152344 C 184.066406 26.882812 185.917969 25.03125 188.191406 25.03125 C 190.464844 25.03125 192.3125 26.882812 192.3125 29.152344 Z M 191.875 29.152344 C 191.875 27.121094 190.222656 25.46875 188.191406 25.46875 C 186.160156 25.46875 184.507812 27.121094 184.507812 29.152344 C 184.507812 31.1875 186.160156 32.839844 188.191406 32.839844 C 190.222656 32.839844 191.875 31.1875 191.875 29.152344 " fill-opacity="1" fill-rule="nonzero"/></g><g fill="#000000" fill-opacity="1"><g transform="translate(0.263871, 41.126928)"><g><path d="M 8.890625 -13.390625 C 7.03125 -13.390625 5.6875 -12.703125 4.8125 -11.359375 L 4.6875 -13.0625 L 1.515625 -13.0625 L 1.515625 5.15625 L 5.09375 5.15625 L 5.09375 -1.21875 C 5.953125 -0.125 7.15625 0.4375 8.609375 0.4375 C 11.890625 0.4375 14.21875 -2.375 14.21875 -6.578125 C 14.21875 -10.859375 11.84375 -13.390625 8.890625 -13.390625 Z M 7.84375 -2.703125 C 6.125 -2.703125 4.90625 -4.234375 4.90625 -6.578125 C 4.90625 -8.9375 6.125 -10.421875 7.84375 -10.421875 C 9.5625 -10.421875 10.78125 -8.953125 10.78125 -6.578125 C 10.78125 -4.171875 9.5625 -2.703125 7.84375 -2.703125 Z M 7.84375 -2.703125 "/></g></g></g><g fill="#000000" fill-opacity="1"><g transform="translate(13.903288, 41.126928)"><g><path d="M 8.046875 -13.421875 C 6.609375 -13.421875 5.546875 -12.65625 4.96875 -11.265625 L 5.015625 -13.0625 L 1.515625 -13.0625 L 1.515625 0 L 5.09375 0 L 5.09375 -6.359375 C 5.09375 -8.890625 6.15625 -10.125 8.328125 -10.125 C 8.578125 -10.125 8.8125 -10.09375 9.0625 -10.078125 L 9.0625 -13.3125 C 8.703125 -13.390625 8.359375 -13.421875 8.046875 -13.421875 Z M 8.046875 -13.421875 "/></g></g></g><g fill="#000000" fill-opacity="1"><g transform="translate(22.076699, 41.126928)"><g><path d="M 13.953125 -6.078125 C 13.953125 -10.65625 11.109375 -13.390625 7.234375 -13.390625 C 3.234375 -13.390625 0.8125 -10.40625 0.8125 -6.578125 C 0.8125 -2.578125 3.296875 0.4375 7.625 0.4375 C 10.5625 0.4375 12.734375 -0.9375 13.625 -3.765625 L 10.078125 -4.03125 C 9.640625 -2.890625 8.78125 -2.328125 7.546875 -2.328125 C 5.765625 -2.328125 4.625 -3.5 4.484375 -5.46875 L 13.953125 -5.46875 Z M 7.359375 -10.78125 C 8.984375 -10.78125 10.046875 -9.71875 10.25 -7.890625 L 4.453125 -7.890625 C 4.625 -9.6875 5.75 -10.78125 7.359375 -10.78125 Z M 7.359375 -10.78125 "/></g></g></g><g fill="#000000" fill-opacity="1"><g transform="translate(35.437759, 41.126928)"><g><path d="M 7.09375 0.4375 C 10.375 0.4375 12.609375 -1.390625 13.140625 -4.5 L 9.640625 -4.5 C 9.234375 -3.09375 8.40625 -2.359375 7.140625 -2.359375 C 5.3125 -2.359375 4.25 -3.828125 4.25 -6.484375 C 4.25 -9.140625 5.3125 -10.609375 7.140625 -10.609375 C 8.421875 -10.609375 9.265625 -9.921875 9.640625 -8.5 L 13.140625 -8.5 C 12.609375 -11.59375 10.421875 -13.390625 7.09375 -13.390625 C 3.21875 -13.390625 0.8125 -10.6875 0.8125 -6.484375 C 0.8125 -2.28125 3.21875 0.4375 7.09375 0.4375 Z M 7.09375 0.4375 "/></g></g></g><g fill="#000000" fill-opacity="1"><g transform="translate(47.887817, 41.126928)"><g><path d="M 5.109375 -14.78125 L 5.109375 -18.015625 L 1.546875 -18.015625 L 1.546875 -14.78125 Z M 5.09375 0 L 5.09375 -13.0625 L 1.515625 -13.0625 L 1.515625 0 Z M 5.09375 0 "/></g></g></g><g fill="#000000" fill-opacity="1"><g transform="translate(53.100465, 41.126928)"><g><path d="M 6.984375 0.484375 C 10.5 0.484375 12.78125 -1.109375 12.78125 -3.875 C 12.78125 -5.890625 11.5625 -7.09375 8.953125 -7.625 L 6.15625 -8.203125 C 5.21875 -8.40625 4.6875 -8.828125 4.6875 -9.515625 C 4.6875 -10.359375 5.4375 -10.90625 6.625 -10.90625 C 7.96875 -10.90625 8.9375 -10.21875 9.109375 -9.09375 L 12.328125 -9.21875 C 12 -11.765625 9.84375 -13.390625 6.6875 -13.390625 C 3.46875 -13.390625 1.359375 -11.71875 1.359375 -9.09375 C 1.359375 -7.09375 2.609375 -5.765625 5.15625 -5.265625 L 7.75 -4.765625 C 8.9375 -4.53125 9.46875 -4.15625 9.46875 -3.4375 C 9.46875 -2.453125 8.453125 -2 7.109375 -2 C 5.421875 -2 4.53125 -2.734375 4.328125 -4.03125 L 1.0625 -3.890625 C 1.390625 -1.109375 3.421875 0.484375 6.984375 0.484375 Z M 6.984375 0.484375 "/></g></g></g><g fill="#000000" fill-opacity="1"><g transform="translate(65.373378, 41.126928)"><g><path d="M 5.109375 -14.78125 L 5.109375 -18.015625 L 1.546875 -18.015625 L 1.546875 -14.78125 Z M 5.09375 0 L 5.09375 -13.0625 L 1.515625 -13.0625 L 1.515625 0 Z M 5.09375 0 "/></g></g></g><g fill="#000000" fill-opacity="1"><g transform="translate(70.586022, 41.126928)"><g><path d="M 7.5 0.4375 C 11.421875 0.4375 14.171875 -2.53125 14.171875 -6.484375 C 14.171875 -10.421875 11.421875 -13.390625 7.5 -13.390625 C 3.5625 -13.390625 0.8125 -10.421875 0.8125 -6.484375 C 0.8125 -2.53125 3.5625 0.4375 7.5 0.4375 Z M 7.5 -2.359375 C 5.5 -2.359375 4.25 -3.96875 4.25 -6.484375 C 4.25 -8.984375 5.5 -10.609375 7.5 -10.609375 C 9.484375 -10.609375 10.734375 -8.984375 10.734375 -6.484375 C 10.734375 -3.96875 9.484375 -2.359375 7.5 -2.359375 Z M 7.5 -2.359375 "/></g></g></g><g fill="#000000" fill-opacity="1"><g transform="translate(84.174826, 41.126928)"><g><path d="M 8.828125 -13.390625 C 7.15625 -13.390625 5.921875 -12.703125 5.0625 -11.296875 L 5.015625 -13.0625 L 1.515625 -13.0625 L 1.515625 0 L 5.09375 0 L 5.09375 -6.984375 C 5.09375 -8.9375 6.125 -10.171875 7.640625 -10.171875 C 8.90625 -10.171875 9.546875 -9.3125 9.546875 -7.953125 L 9.546875 0 L 13.109375 0 L 13.109375 -8.765625 C 13.109375 -11.59375 11.546875 -13.390625 8.828125 -13.390625 Z M 8.828125 -13.390625 "/></g></g></g><g fill="#000000" fill-opacity="1"><g transform="translate(97.44178, 40.766869)"><g><path d="M 14.65625 -19.078125 L 14.65625 0 L 13.390625 0 L 13.390625 -3.15625 C 12.859375 -2.113281 12.113281 -1.304688 11.15625 -0.734375 C 10.195312 -0.171875 9.109375 0.109375 7.890625 0.109375 C 6.640625 0.109375 5.507812 -0.179688 4.5 -0.765625 C 3.488281 -1.347656 2.695312 -2.15625 2.125 -3.1875 C 1.550781 -4.21875 1.265625 -5.390625 1.265625 -6.703125 C 1.265625 -8.023438 1.550781 -9.203125 2.125 -10.234375 C 2.695312 -11.273438 3.488281 -12.082031 4.5 -12.65625 C 5.507812 -13.226562 6.640625 -13.515625 7.890625 -13.515625 C 9.085938 -13.515625 10.160156 -13.234375 11.109375 -12.671875 C 12.066406 -12.109375 12.816406 -11.320312 13.359375 -10.3125 L 13.359375 -19.078125 Z M 7.96875 -1.046875 C 9 -1.046875 9.921875 -1.285156 10.734375 -1.765625 C 11.546875 -2.253906 12.1875 -2.925781 12.65625 -3.78125 C 13.125 -4.632812 13.359375 -5.609375 13.359375 -6.703125 C 13.359375 -7.804688 13.125 -8.785156 12.65625 -9.640625 C 12.1875 -10.492188 11.546875 -11.160156 10.734375 -11.640625 C 9.921875 -12.117188 9 -12.359375 7.96875 -12.359375 C 6.9375 -12.359375 6.015625 -12.117188 5.203125 -11.640625 C 4.390625 -11.160156 3.75 -10.492188 3.28125 -9.640625 C 2.8125 -8.785156 2.578125 -7.804688 2.578125 -6.703125 C 2.578125 -5.609375 2.8125 -4.632812 3.28125 -3.78125 C 3.75 -2.925781 4.390625 -2.253906 5.203125 -1.765625 C 6.015625 -1.285156 6.9375 -1.046875 7.96875 -1.046875 Z M 7.96875 -1.046875 "/></g></g></g><g fill="#000000" fill-opacity="1"><g transform="translate(112.680386, 40.766869)"><g><path d="M 14.0625 -6.40625 L 2.515625 -6.40625 C 2.554688 -5.351562 2.820312 -4.421875 3.3125 -3.609375 C 3.8125 -2.796875 4.484375 -2.164062 5.328125 -1.71875 C 6.179688 -1.269531 7.140625 -1.046875 8.203125 -1.046875 C 9.078125 -1.046875 9.882812 -1.203125 10.625 -1.515625 C 11.375 -1.835938 11.992188 -2.3125 12.484375 -2.9375 L 13.234375 -2.078125 C 12.648438 -1.378906 11.914062 -0.835938 11.03125 -0.453125 C 10.15625 -0.078125 9.203125 0.109375 8.171875 0.109375 C 6.835938 0.109375 5.644531 -0.179688 4.59375 -0.765625 C 3.550781 -1.347656 2.734375 -2.15625 2.140625 -3.1875 C 1.554688 -4.21875 1.265625 -5.390625 1.265625 -6.703125 C 1.265625 -8.003906 1.539062 -9.171875 2.09375 -10.203125 C 2.65625 -11.242188 3.421875 -12.054688 4.390625 -12.640625 C 5.367188 -13.222656 6.46875 -13.515625 7.6875 -13.515625 C 8.90625 -13.515625 10 -13.226562 10.96875 -12.65625 C 11.9375 -12.082031 12.695312 -11.28125 13.25 -10.25 C 13.800781 -9.226562 14.078125 -8.066406 14.078125 -6.765625 Z M 7.6875 -12.390625 C 6.738281 -12.390625 5.890625 -12.175781 5.140625 -11.75 C 4.390625 -11.332031 3.785156 -10.742188 3.328125 -9.984375 C 2.867188 -9.222656 2.609375 -8.363281 2.546875 -7.40625 L 12.828125 -7.40625 C 12.773438 -8.363281 12.515625 -9.21875 12.046875 -9.96875 C 11.585938 -10.726562 10.976562 -11.320312 10.21875 -11.75 C 9.46875 -12.175781 8.625 -12.390625 7.6875 -12.390625 Z M 7.6875 -12.390625 "/></g></g></g><g fill="#000000" fill-opacity="1"><g transform="translate(125.914528, 40.766869)"><g><path d="M 6.125 0.109375 C 5.039062 0.109375 4.007812 -0.0507812 3.03125 -0.375 C 2.050781 -0.707031 1.289062 -1.125 0.75 -1.625 L 1.34375 -2.640625 C 1.882812 -2.179688 2.585938 -1.796875 3.453125 -1.484375 C 4.316406 -1.179688 5.222656 -1.03125 6.171875 -1.03125 C 7.523438 -1.03125 8.519531 -1.25 9.15625 -1.6875 C 9.800781 -2.132812 10.125 -2.753906 10.125 -3.546875 C 10.125 -4.109375 9.945312 -4.550781 9.59375 -4.875 C 9.25 -5.207031 8.816406 -5.445312 8.296875 -5.59375 C 7.785156 -5.75 7.078125 -5.914062 6.171875 -6.09375 C 5.109375 -6.28125 4.25 -6.484375 3.59375 -6.703125 C 2.945312 -6.929688 2.390625 -7.289062 1.921875 -7.78125 C 1.460938 -8.28125 1.234375 -8.96875 1.234375 -9.84375 C 1.234375 -10.90625 1.671875 -11.78125 2.546875 -12.46875 C 3.429688 -13.164062 4.691406 -13.515625 6.328125 -13.515625 C 7.179688 -13.515625 8.023438 -13.394531 8.859375 -13.15625 C 9.703125 -12.914062 10.390625 -12.597656 10.921875 -12.203125 L 10.328125 -11.1875 C 9.785156 -11.570312 9.160156 -11.867188 8.453125 -12.078125 C 7.753906 -12.285156 7.035156 -12.390625 6.296875 -12.390625 C 5.046875 -12.390625 4.101562 -12.15625 3.46875 -11.6875 C 2.832031 -11.226562 2.515625 -10.625 2.515625 -9.875 C 2.515625 -9.269531 2.691406 -8.800781 3.046875 -8.46875 C 3.410156 -8.132812 3.851562 -7.882812 4.375 -7.71875 C 4.90625 -7.5625 5.640625 -7.390625 6.578125 -7.203125 C 7.617188 -7.015625 8.460938 -6.8125 9.109375 -6.59375 C 9.753906 -6.375 10.296875 -6.023438 10.734375 -5.546875 C 11.179688 -5.066406 11.40625 -4.410156 11.40625 -3.578125 C 11.40625 -2.460938 10.941406 -1.566406 10.015625 -0.890625 C 9.097656 -0.222656 7.800781 0.109375 6.125 0.109375 Z M 6.125 0.109375 "/></g></g></g><g fill="#000000" fill-opacity="1"><g transform="translate(136.090573, 40.766869)"><g><path d="M 2.71875 -13.421875 L 4.015625 -13.421875 L 4.015625 0 L 2.71875 0 Z M 3.359375 -16.6875 C 3.078125 -16.6875 2.832031 -16.78125 2.625 -16.96875 C 2.414062 -17.164062 2.3125 -17.410156 2.3125 -17.703125 C 2.3125 -17.992188 2.414062 -18.242188 2.625 -18.453125 C 2.832031 -18.660156 3.078125 -18.765625 3.359375 -18.765625 C 3.648438 -18.765625 3.898438 -18.664062 4.109375 -18.46875 C 4.316406 -18.269531 4.421875 -18.023438 4.421875 -17.734375 C 4.421875 -17.441406 4.316406 -17.191406 4.109375 -16.984375 C 3.898438 -16.785156 3.648438 -16.6875 3.359375 -16.6875 Z M 3.359375 -16.6875 "/></g></g></g><g fill="#000000" fill-opacity="1"><g transform="translate(140.690095, 40.766869)"><g><path d="M 14.8125 -13.421875 L 14.8125 -1.4375 C 14.8125 0.789062 14.269531 2.4375 13.1875 3.5 C 12.101562 4.5625 10.472656 5.09375 8.296875 5.09375 C 7.066406 5.09375 5.898438 4.898438 4.796875 4.515625 C 3.703125 4.140625 2.820312 3.617188 2.15625 2.953125 L 2.859375 1.984375 C 3.523438 2.597656 4.328125 3.078125 5.265625 3.421875 C 6.210938 3.765625 7.21875 3.9375 8.28125 3.9375 C 10.0625 3.9375 11.378906 3.507812 12.234375 2.65625 C 13.085938 1.8125 13.515625 0.5 13.515625 -1.28125 L 13.515625 -3.546875 C 12.972656 -2.566406 12.210938 -1.8125 11.234375 -1.28125 C 10.253906 -0.75 9.15625 -0.484375 7.9375 -0.484375 C 6.6875 -0.484375 5.550781 -0.757812 4.53125 -1.3125 C 3.507812 -1.875 2.707031 -2.648438 2.125 -3.640625 C 1.550781 -4.640625 1.265625 -5.765625 1.265625 -7.015625 C 1.265625 -8.265625 1.550781 -9.382812 2.125 -10.375 C 2.707031 -11.375 3.507812 -12.144531 4.53125 -12.6875 C 5.550781 -13.238281 6.6875 -13.515625 7.9375 -13.515625 C 9.175781 -13.515625 10.289062 -13.238281 11.28125 -12.6875 C 12.28125 -12.144531 13.046875 -11.378906 13.578125 -10.390625 L 13.578125 -13.421875 Z M 8.046875 -1.640625 C 9.085938 -1.640625 10.023438 -1.863281 10.859375 -2.3125 C 11.703125 -2.769531 12.359375 -3.40625 12.828125 -4.21875 C 13.304688 -5.039062 13.546875 -5.972656 13.546875 -7.015625 C 13.546875 -8.054688 13.304688 -8.976562 12.828125 -9.78125 C 12.359375 -10.59375 11.703125 -11.222656 10.859375 -11.671875 C 10.023438 -12.128906 9.085938 -12.359375 8.046875 -12.359375 C 7.003906 -12.359375 6.066406 -12.128906 5.234375 -11.671875 C 4.398438 -11.222656 3.75 -10.59375 3.28125 -9.78125 C 2.8125 -8.976562 2.578125 -8.054688 2.578125 -7.015625 C 2.578125 -5.972656 2.8125 -5.039062 3.28125 -4.21875 C 3.75 -3.40625 4.398438 -2.769531 5.234375 -2.3125 C 6.066406 -1.863281 7.003906 -1.640625 8.046875 -1.640625 Z M 8.046875 -1.640625 "/></g></g></g><g fill="#000000" fill-opacity="1"><g transform="translate(156.108584, 40.766869)"><g><path d="M 9.28125 -13.515625 C 10.957031 -13.515625 12.285156 -13.023438 13.265625 -12.046875 C 14.242188 -11.078125 14.734375 -9.675781 14.734375 -7.84375 L 14.734375 0 L 13.4375 0 L 13.4375 -7.734375 C 13.4375 -9.242188 13.054688 -10.390625 12.296875 -11.171875 C 11.535156 -11.960938 10.46875 -12.359375 9.09375 -12.359375 C 7.519531 -12.359375 6.28125 -11.882812 5.375 -10.9375 C 4.46875 -10 4.015625 -8.734375 4.015625 -7.140625 L 4.015625 0 L 2.71875 0 L 2.71875 -13.421875 L 3.953125 -13.421875 L 3.953125 -10.515625 C 4.421875 -11.453125 5.113281 -12.1875 6.03125 -12.71875 C 6.945312 -13.25 8.03125 -13.515625 9.28125 -13.515625 Z M 9.28125 -13.515625 "/></g></g></g><g fill="#000000" fill-opacity="1"><g transform="translate(171.295794, 40.766869)"><g><path d="M 6.125 0.109375 C 5.039062 0.109375 4.007812 -0.0507812 3.03125 -0.375 C 2.050781 -0.707031 1.289062 -1.125 0.75 -1.625 L 1.34375 -2.640625 C 1.882812 -2.179688 2.585938 -1.796875 3.453125 -1.484375 C 4.316406 -1.179688 5.222656 -1.03125 6.171875 -1.03125 C 7.523438 -1.03125 8.519531 -1.25 9.15625 -1.6875 C 9.800781 -2.132812 10.125 -2.753906 10.125 -3.546875 C 10.125 -4.109375 9.945312 -4.550781 9.59375 -4.875 C 9.25 -5.207031 8.816406 -5.445312 8.296875 -5.59375 C 7.785156 -5.75 7.078125 -5.914062 6.171875 -6.09375 C 5.109375 -6.28125 4.25 -6.484375 3.59375 -6.703125 C 2.945312 -6.929688 2.390625 -7.289062 1.921875 -7.78125 C 1.460938 -8.28125 1.234375 -8.96875 1.234375 -9.84375 C 1.234375 -10.90625 1.671875 -11.78125 2.546875 -12.46875 C 3.429688 -13.164062 4.691406 -13.515625 6.328125 -13.515625 C 7.179688 -13.515625 8.023438 -13.394531 8.859375 -13.15625 C 9.703125 -12.914062 10.390625 -12.597656 10.921875 -12.203125 L 10.328125 -11.1875 C 9.785156 -11.570312 9.160156 -11.867188 8.453125 -12.078125 C 7.753906 -12.285156 7.035156 -12.390625 6.296875 -12.390625 C 5.046875 -12.390625 4.101562 -12.15625 3.46875 -11.6875 C 2.832031 -11.226562 2.515625 -10.625 2.515625 -9.875 C 2.515625 -9.269531 2.691406 -8.800781 3.046875 -8.46875 C 3.410156 -8.132812 3.851562 -7.882812 4.375 -7.71875 C 4.90625 -7.5625 5.640625 -7.390625 6.578125 -7.203125 C 7.617188 -7.015625 8.460938 -6.8125 9.109375 -6.59375 C 9.753906 -6.375 10.296875 -6.023438 10.734375 -5.546875 C 11.179688 -5.066406 11.40625 -4.410156 11.40625 -3.578125 C 11.40625 -2.460938 10.941406 -1.566406 10.015625 -0.890625 C 9.097656 -0.222656 7.800781 0.109375 6.125 0.109375 Z M 6.125 0.109375 "/></g></g></g></svg>