<svg xmlns="http://www.w3.org/2000/svg" xmlns:xlink="http://www.w3.org/1999/xlink" width="500" zoomAndPan="magnify" viewBox="0 0 375 374.999991" height="500" preserveAspectRatio="xMidYMid meet" version="1.0"><defs><g/><clipPath id="9400c1c704"><path d="M 313.535156 95.78125 L 375 95.78125 L 375 157.230469 L 313.535156 157.230469 Z M 313.535156 95.78125 " clip-rule="nonzero"/></clipPath><clipPath id="f1fc671e55"><path d="M 210.855469 185.25 L 261.203125 185.25 L 261.203125 235.597656 L 210.855469 235.597656 Z M 210.855469 185.25 " clip-rule="nonzero"/></clipPath><clipPath id="a18b9f3c2a"><path d="M 236.027344 185.25 C 222.125 185.25 210.855469 196.519531 210.855469 210.421875 C 210.855469 224.328125 222.125 235.597656 236.027344 235.597656 C 249.929688 235.597656 261.203125 224.328125 261.203125 210.421875 C 261.203125 196.519531 249.929688 185.25 236.027344 185.25 Z M 236.027344 185.25 " clip-rule="nonzero"/></clipPath></defs><g fill="#ffffff" fill-opacity="1"><g transform="translate(9.987449, 278.318043)"><g><path d="M 87.71875 -132.203125 C 69.46875 -132.203125 56.234375 -125.453125 47.484375 -112.203125 L 46.234375 -128.953125 L 15 -128.953125 L 15 50.984375 L 50.234375 50.984375 L 50.234375 -12 C 58.734375 -1.25 70.71875 4.25 84.96875 4.25 C 117.453125 4.25 140.453125 -23.484375 140.453125 -64.96875 C 140.453125 -107.203125 116.953125 -132.203125 87.71875 -132.203125 Z M 77.46875 -26.734375 C 60.484375 -26.734375 48.484375 -41.734375 48.484375 -64.96875 C 48.484375 -88.21875 60.484375 -102.96875 77.46875 -102.96875 C 94.46875 -102.96875 106.453125 -88.46875 106.453125 -64.96875 C 106.453125 -41.234375 94.46875 -26.734375 77.46875 -26.734375 Z M 77.46875 -26.734375 "/></g></g></g><g fill="#ffffff" fill-opacity="1"><g transform="translate(158.522176, 273.641508)"><g><path d="M 142.453125 -185.4375 L 142.453125 0 L 130.203125 0 L 130.203125 -30.734375 C 125.035156 -20.578125 117.785156 -12.75 108.453125 -7.25 C 99.128906 -1.75 88.550781 1 76.71875 1 C 64.5625 1 53.566406 -1.832031 43.734375 -7.5 C 33.898438 -13.164062 26.191406 -20.992188 20.609375 -30.984375 C 15.035156 -40.984375 12.25 -52.394531 12.25 -65.21875 C 12.25 -78.050781 15.035156 -89.503906 20.609375 -99.578125 C 26.191406 -109.660156 33.898438 -117.492188 43.734375 -123.078125 C 53.566406 -128.660156 64.5625 -131.453125 76.71875 -131.453125 C 88.382812 -131.453125 98.835938 -128.703125 108.078125 -123.203125 C 117.328125 -117.703125 124.617188 -110.039062 129.953125 -100.21875 L 129.953125 -185.4375 Z M 77.46875 -10.25 C 87.46875 -10.25 96.421875 -12.578125 104.328125 -17.234375 C 112.242188 -21.898438 118.492188 -28.398438 123.078125 -36.734375 C 127.660156 -45.066406 129.953125 -54.5625 129.953125 -65.21875 C 129.953125 -75.882812 127.660156 -85.378906 123.078125 -93.703125 C 118.492188 -102.035156 112.242188 -108.535156 104.328125 -113.203125 C 96.421875 -117.867188 87.46875 -120.203125 77.46875 -120.203125 C 67.476562 -120.203125 58.523438 -117.867188 50.609375 -113.203125 C 42.691406 -108.535156 36.441406 -102.035156 31.859375 -93.703125 C 27.273438 -85.378906 24.984375 -75.882812 24.984375 -65.21875 C 24.984375 -54.5625 27.273438 -45.066406 31.859375 -36.734375 C 36.441406 -28.398438 42.691406 -21.898438 50.609375 -17.234375 C 58.523438 -12.578125 67.476562 -10.25 77.46875 -10.25 Z M 77.46875 -10.25 "/></g></g></g><g clip-path="url(#9400c1c704)"><path fill="#ffffff" d="M 324.050781 115.800781 L 341.066406 115.800781 L 341.066406 119.421875 L 334.726562 119.421875 L 334.726562 137.214844 L 330.402344 137.214844 L 330.402344 119.421875 L 324.050781 119.421875 Z M 357.996094 115.800781 L 354.15625 130.40625 L 350.269531 115.800781 L 343.796875 115.800781 L 343.796875 137.214844 L 347.816406 137.214844 L 347.816406 120.355469 L 352.050781 137.214844 L 356.214844 137.214844 L 360.464844 120.355469 L 360.464844 137.214844 L 364.484375 137.214844 L 364.484375 115.800781 Z M 375 126.507812 C 375 143.449219 361.210938 157.230469 344.265625 157.230469 C 327.320312 157.230469 313.535156 143.449219 313.535156 126.507812 C 313.535156 109.5625 327.320312 95.78125 344.265625 95.78125 C 361.210938 95.78125 375 109.5625 375 126.507812 Z M 371.734375 126.507812 C 371.734375 111.363281 359.414062 99.042969 344.265625 99.042969 C 329.121094 99.042969 316.796875 111.363281 316.796875 126.507812 C 316.796875 141.648438 329.121094 153.96875 344.265625 153.96875 C 359.414062 153.96875 371.734375 141.648438 371.734375 126.507812 " fill-opacity="1" fill-rule="nonzero"/></g><g clip-path="url(#f1fc671e55)"><g clip-path="url(#a18b9f3c2a)"><path fill="#0a1d37" d="M 210.855469 185.25 L 261.203125 185.25 L 261.203125 235.597656 L 210.855469 235.597656 Z M 210.855469 185.25 " fill-opacity="1" fill-rule="nonzero"/></g></g></svg>