<svg xmlns="http://www.w3.org/2000/svg" xmlns:xlink="http://www.w3.org/1999/xlink" width="258" zoomAndPan="magnify" viewBox="0 0 193.5 57.749997" height="77" preserveAspectRatio="xMidYMid meet" version="1.0"><defs><g/></defs><g fill="#000000" fill-opacity="1"><g transform="translate(0.879871, 32.719192)"><g><path d="M 11.953125 -15.328125 C 12.597656 -15.328125 13.34375 -15.3125 14.1875 -15.28125 C 15.039062 -15.257812 15.90625 -15.175781 16.78125 -15.03125 C 17.65625 -14.882812 18.460938 -14.640625 19.203125 -14.296875 C 19.953125 -13.960938 20.550781 -13.492188 21 -12.890625 C 21.457031 -12.285156 21.6875 -11.5 21.6875 -10.53125 C 21.6875 -9.394531 21.4375 -8.476562 20.9375 -7.78125 C 20.445312 -7.09375 19.757812 -6.566406 18.875 -6.203125 C 17.988281 -5.847656 16.96875 -5.609375 15.8125 -5.484375 C 14.65625 -5.359375 13.429688 -5.289062 12.140625 -5.28125 L 4.140625 -5.28125 L 4.140625 0 L 1.3125 0 L 1.3125 -15.328125 Z M 11.265625 -8.109375 C 12.828125 -8.109375 14.09375 -8.15625 15.0625 -8.25 C 16.03125 -8.34375 16.78125 -8.46875 17.3125 -8.625 C 17.84375 -8.789062 18.210938 -8.976562 18.421875 -9.1875 C 18.640625 -9.394531 18.765625 -9.613281 18.796875 -9.84375 C 18.835938 -10.082031 18.859375 -10.3125 18.859375 -10.53125 C 18.859375 -10.925781 18.6875 -11.25 18.34375 -11.5 C 18 -11.75 17.550781 -11.941406 17 -12.078125 C 16.445312 -12.222656 15.851562 -12.320312 15.21875 -12.375 C 14.59375 -12.4375 13.988281 -12.472656 13.40625 -12.484375 C 12.832031 -12.503906 12.347656 -12.515625 11.953125 -12.515625 L 4.140625 -12.515625 L 4.140625 -8.109375 Z M 11.265625 -8.109375 "/></g></g></g><g fill="#000000" fill-opacity="1"><g transform="translate(23.8981, 32.719192)"><g><path d="M 22.328125 -10.53125 C 22.328125 -9.351562 22.046875 -8.410156 21.484375 -7.703125 C 20.929688 -7.003906 20.171875 -6.484375 19.203125 -6.140625 C 18.242188 -5.796875 17.132812 -5.5625 15.875 -5.4375 L 22.765625 0 L 18.1875 0 L 11.5 -5.28125 L 4.140625 -5.28125 L 4.140625 0 L 1.3125 0 L 1.3125 -15.328125 L 12.1875 -15.328125 C 12.71875 -15.328125 13.335938 -15.316406 14.046875 -15.296875 C 14.753906 -15.273438 15.488281 -15.222656 16.25 -15.140625 C 17.007812 -15.066406 17.75 -14.929688 18.46875 -14.734375 C 19.195312 -14.535156 19.847656 -14.257812 20.421875 -13.90625 C 21.003906 -13.5625 21.46875 -13.113281 21.8125 -12.5625 C 22.15625 -12.007812 22.328125 -11.332031 22.328125 -10.53125 Z M 11.265625 -8.109375 C 12.828125 -8.109375 14.09375 -8.15625 15.0625 -8.25 C 16.03125 -8.34375 16.78125 -8.46875 17.3125 -8.625 C 17.84375 -8.789062 18.210938 -8.976562 18.421875 -9.1875 C 18.640625 -9.394531 18.765625 -9.613281 18.796875 -9.84375 C 18.835938 -10.082031 18.859375 -10.3125 18.859375 -10.53125 C 18.859375 -10.925781 18.6875 -11.25 18.34375 -11.5 C 18 -11.75 17.550781 -11.941406 17 -12.078125 C 16.445312 -12.222656 15.851562 -12.320312 15.21875 -12.375 C 14.59375 -12.4375 13.988281 -12.472656 13.40625 -12.484375 C 12.832031 -12.503906 12.347656 -12.515625 11.953125 -12.515625 L 4.140625 -12.515625 L 4.140625 -8.109375 Z M 11.265625 -8.109375 "/></g></g></g><g fill="#000000" fill-opacity="1"><g transform="translate(47.9676, 32.719192)"><g><path d="M 12.25 -15.328125 L 15.65625 -15.328125 L 26.609375 0 L 23.15625 0 L 20.984375 -3.046875 L 6.90625 -3.046875 L 4.734375 0 L 1.3125 0 Z M 8.921875 -5.875 L 18.96875 -5.875 L 13.953125 -12.875 Z M 8.921875 -5.875 "/></g></g></g><g fill="#000000" fill-opacity="1"><g transform="translate(75.91362, 32.719192)"><g><path d="M 13.953125 -9.109375 C 14.535156 -9.109375 15.191406 -9.085938 15.921875 -9.046875 C 16.648438 -9.015625 17.382812 -8.929688 18.125 -8.796875 C 18.875 -8.660156 19.5625 -8.429688 20.1875 -8.109375 C 20.820312 -7.785156 21.328125 -7.335938 21.703125 -6.765625 C 22.085938 -6.203125 22.28125 -5.472656 22.28125 -4.578125 C 22.28125 -3.816406 22.117188 -3.171875 21.796875 -2.640625 C 21.472656 -2.117188 21.035156 -1.691406 20.484375 -1.359375 C 19.941406 -1.023438 19.335938 -0.757812 18.671875 -0.5625 C 18.003906 -0.375 17.320312 -0.238281 16.625 -0.15625 C 15.925781 -0.0820312 15.257812 -0.0351562 14.625 -0.015625 C 13.988281 -0.00390625 13.4375 0 12.96875 0 C 11.625 0 10.453125 -0.0351562 9.453125 -0.109375 C 8.460938 -0.179688 7.59375 -0.289062 6.84375 -0.4375 C 6.101562 -0.59375 5.4375 -0.804688 4.84375 -1.078125 C 3.851562 -1.484375 3.0625 -1.960938 2.46875 -2.515625 C 1.882812 -3.078125 1.546875 -3.875 1.453125 -4.90625 L 4.296875 -4.90625 C 4.335938 -4.695312 4.46875 -4.5 4.6875 -4.3125 C 4.90625 -4.132812 5.328125 -3.914062 5.953125 -3.65625 C 6.660156 -3.351562 7.5625 -3.132812 8.65625 -3 C 9.75 -2.863281 11.1875 -2.796875 12.96875 -2.796875 C 14.3125 -2.796875 15.40625 -2.847656 16.25 -2.953125 C 17.101562 -3.066406 17.757812 -3.210938 18.21875 -3.390625 C 18.6875 -3.566406 19.007812 -3.753906 19.1875 -3.953125 C 19.363281 -4.160156 19.453125 -4.367188 19.453125 -4.578125 C 19.453125 -5.273438 18.96875 -5.726562 18 -5.9375 C 17.039062 -6.15625 15.6875 -6.269531 13.9375 -6.28125 C 13.757812 -6.28125 13.585938 -6.28125 13.421875 -6.28125 C 13.265625 -6.28125 13.113281 -6.289062 12.96875 -6.3125 C 12.78125 -6.3125 12.570312 -6.3125 12.34375 -6.3125 C 12.113281 -6.3125 11.875 -6.3125 11.625 -6.3125 C 10.34375 -6.289062 9.109375 -6.3125 7.921875 -6.375 C 6.742188 -6.445312 5.671875 -6.617188 4.703125 -6.890625 C 3.742188 -7.160156 2.960938 -7.59375 2.359375 -8.1875 C 1.660156 -8.875 1.3125 -9.71875 1.3125 -10.71875 C 1.3125 -11.769531 1.613281 -12.601562 2.21875 -13.21875 C 2.820312 -13.84375 3.65625 -14.300781 4.71875 -14.59375 C 5.78125 -14.882812 7.007812 -15.070312 8.40625 -15.15625 C 9.800781 -15.25 11.285156 -15.296875 12.859375 -15.296875 C 17.078125 -15.296875 19.890625 -14.453125 21.296875 -12.765625 C 21.628906 -12.359375 21.847656 -11.960938 21.953125 -11.578125 C 22.066406 -11.191406 22.128906 -10.867188 22.140625 -10.609375 L 19.296875 -10.609375 C 19.285156 -10.648438 19.257812 -10.707031 19.21875 -10.78125 C 19.1875 -10.863281 19.125 -10.957031 19.03125 -11.0625 C 18.882812 -11.195312 18.609375 -11.375 18.203125 -11.59375 C 17.796875 -11.820312 17.164062 -12.023438 16.3125 -12.203125 C 15.457031 -12.378906 14.304688 -12.46875 12.859375 -12.46875 C 11.109375 -12.46875 9.679688 -12.425781 8.578125 -12.34375 C 7.484375 -12.257812 6.628906 -12.148438 6.015625 -12.015625 C 5.410156 -11.878906 4.972656 -11.726562 4.703125 -11.5625 C 4.429688 -11.40625 4.269531 -11.25 4.21875 -11.09375 C 4.164062 -10.9375 4.140625 -10.8125 4.140625 -10.71875 C 4.140625 -10.507812 4.207031 -10.332031 4.34375 -10.1875 C 4.632812 -9.90625 5.078125 -9.691406 5.671875 -9.546875 C 6.273438 -9.398438 6.9375 -9.296875 7.65625 -9.234375 C 8.375 -9.171875 9.085938 -9.132812 9.796875 -9.125 C 10.503906 -9.113281 11.109375 -9.109375 11.609375 -9.109375 C 11.890625 -9.128906 12.148438 -9.140625 12.390625 -9.140625 C 12.628906 -9.140625 12.84375 -9.128906 13.03125 -9.109375 C 13.175781 -9.109375 13.328125 -9.109375 13.484375 -9.109375 C 13.640625 -9.109375 13.796875 -9.109375 13.953125 -9.109375 Z M 13.953125 -9.109375 "/></g></g></g><g fill="#000000" fill-opacity="1"><g transform="translate(99.523192, 32.719192)"><g><path d="M 19.625 -9.796875 L 19.625 -15.328125 L 22.453125 -15.328125 L 22.453125 0 L 19.625 0 L 19.625 -6.984375 L 4.140625 -6.984375 L 4.140625 -0.015625 L 1.3125 -0.015625 L 1.3125 -15.328125 L 4.140625 -15.328125 L 4.140625 -9.796875 Z M 19.625 -9.796875 "/></g></g></g><g fill="#000000" fill-opacity="1"><g transform="translate(123.30797, 32.719192)"><g><path d="M 1.3125 0 L 1.3125 -15.3125 L 22.328125 -15.3125 L 22.328125 -12.484375 L 4.140625 -12.484375 L 4.140625 -9.875 L 17.875 -9.875 L 17.875 -7.046875 L 4.140625 -7.046875 L 4.140625 -2.828125 L 22.328125 -2.828125 L 22.328125 0 Z M 1.3125 0 "/></g></g></g><g fill="#000000" fill-opacity="1"><g transform="translate(146.939444, 32.719192)"><g><path d="M 4.140625 -15.328125 L 4.140625 -2.828125 L 20.390625 -2.828125 L 20.390625 0 L 1.3125 0 L 1.3125 -15.328125 Z M 4.140625 -15.328125 "/></g></g></g><g fill="#000000" fill-opacity="1"><g transform="translate(168.643595, 32.719192)"><g><path d="M 18.265625 -15.328125 L 22.140625 -15.328125 L 13.1875 -5.765625 L 13.1875 0 L 10.359375 0 L 10.359375 -5.921875 L 1.3125 -15.328125 L 5.234375 -15.328125 L 11.84375 -8.453125 Z M 18.265625 -15.328125 "/></g></g></g></svg>